<?xml version="1.0" encoding="UTF-8"?>
<svg id="Layer_2" data-name="Layer 2" xmlns="http://www.w3.org/2000/svg" viewBox="0 0 49.74 11.16">
  <defs>
    <style>
      .cls-1 {
        fill: #3cd7b6;
      }
    </style>
  </defs>
  <g id="Layer_1-2" data-name="Layer 1">
    <path d="M1.86,3.46c.24-.23.5-.41.79-.55.29-.14.6-.21.96-.21s.67.07.96.22c.29.14.53.35.74.62s.36.59.47.96c.11.38.17.8.17,1.26,0,.5-.06.96-.19,1.37-.13.41-.31.77-.54,1.06s-.51.52-.84.68c-.32.16-.68.24-1.07.24-.19,0-.36-.02-.5-.05s-.28-.09-.41-.15c-.12-.07-.24-.15-.34-.24-.1-.09-.2-.19-.3-.3l-.07.31c-.03.13-.08.22-.16.26-.07.05-.17.07-.29.07H0V.04h1.86v3.42ZM1.86,7.33c.14.15.29.26.46.32s.33.1.5.1c.18,0,.34-.03.49-.1.15-.07.27-.17.38-.32.11-.15.19-.35.25-.59s.09-.55.09-.91c0-.31-.02-.58-.07-.79-.05-.22-.11-.4-.2-.53-.09-.14-.2-.24-.34-.3-.13-.06-.29-.09-.46-.09-.23,0-.43.05-.59.15s-.33.25-.5.44v2.64Z"/>
    <path d="M8.63,3.76c.19-.34.41-.6.66-.79.25-.19.54-.29.86-.29.28,0,.51.07.68.2l-.12,1.37c-.02.09-.05.15-.1.18-.05.03-.11.05-.19.05-.03,0-.07,0-.13,0-.05,0-.11,0-.16-.01-.06,0-.11-.01-.17-.02s-.11,0-.16,0c-.27,0-.49.07-.65.22s-.3.34-.41.6v3.78h-1.86V2.8h1.1c.09,0,.17,0,.23.02.06.02.11.04.16.08.04.03.07.08.1.14.02.06.04.12.06.2l.1.52Z"/>
    <path class="cls-1" d="M13.57,1.09c0,.15-.03.29-.09.42-.06.13-.14.24-.25.34s-.23.18-.36.23c-.14.06-.28.09-.44.09s-.29-.03-.43-.09c-.13-.06-.25-.14-.35-.23s-.18-.21-.24-.34c-.06-.13-.09-.27-.09-.42s.03-.29.09-.43.14-.25.24-.35c.1-.1.22-.18.35-.23.13-.06.27-.08.43-.08s.3.03.44.08c.14.06.26.13.36.23.1.1.19.22.25.35.06.13.09.27.09.43Z"/>
    <rect x="11.51" y="2.8" width="1.86" height="6.22"/>
    <path d="M20.32,2.99v.68c0,.1-.03.19-.09.25s-.16.11-.3.14l-.45.1c.02.09.04.18.06.27.01.09.02.19.02.29,0,.31-.06.59-.19.84-.13.25-.31.46-.53.63s-.49.31-.8.4c-.31.09-.64.14-.99.14-.1,0-.19,0-.28,0-.09,0-.18-.02-.27-.03-.14.08-.2.18-.2.28s.06.18.17.22c.11.05.26.08.44.1s.39.03.63.04c.23,0,.47.02.72.04.24.02.48.06.72.11.23.05.44.14.63.25.18.12.33.27.44.46.11.19.17.44.17.74,0,.28-.07.55-.2.82-.14.27-.34.51-.6.71s-.59.38-.97.5c-.38.13-.82.19-1.32.19s-.91-.05-1.26-.14c-.35-.09-.65-.21-.88-.36s-.41-.32-.52-.52c-.11-.2-.17-.4-.17-.61,0-.28.08-.51.24-.69.16-.18.38-.33.67-.44-.15-.09-.27-.21-.36-.35-.09-.14-.13-.33-.13-.56,0-.09.02-.19.05-.29.03-.1.08-.2.15-.3.07-.1.16-.19.26-.28.1-.09.23-.17.37-.23-.32-.17-.58-.4-.77-.68-.19-.28-.28-.61-.28-.99,0-.31.07-.59.2-.84.13-.25.31-.46.54-.64.23-.17.5-.31.81-.4.31-.09.65-.14,1.01-.14.53,0,1,.1,1.4.3h1.87ZM18.49,9.25c0-.15-.07-.25-.2-.32-.13-.07-.3-.11-.52-.14s-.45-.04-.71-.05c-.26,0-.52-.02-.78-.04-.12.08-.21.17-.29.27-.07.1-.11.21-.11.33,0,.09.02.17.06.24.04.07.1.13.2.19.1.05.22.09.39.12.16.03.37.04.62.04.27,0,.49-.02.66-.05.17-.03.31-.08.41-.13.1-.06.17-.12.21-.2s.06-.16.06-.25ZM17.05,5.58c.31,0,.53-.08.67-.23s.21-.35.21-.6-.07-.45-.21-.59-.36-.22-.67-.22-.53.07-.67.22-.21.34-.21.59c0,.12.02.23.05.33.03.1.09.19.16.26.07.07.16.13.27.17s.24.06.39.06Z"/>
    <path d="M22.96,3.34c.22-.19.47-.35.73-.47.26-.12.57-.18.94-.18.34,0,.64.06.9.18.26.12.48.28.66.49.18.21.32.46.41.75.09.29.14.6.14.94v3.95h-1.86v-3.95c0-.3-.07-.54-.21-.71-.14-.17-.35-.25-.62-.25-.2,0-.4.04-.57.13-.18.09-.35.2-.52.35v4.44h-1.86V.04h1.86v3.31Z"/>
    <path d="M30.08,9.11c-.3,0-.56-.04-.78-.13-.23-.09-.42-.21-.57-.37s-.27-.35-.35-.57c-.08-.22-.12-.47-.12-.75v-3.22h-.53c-.1,0-.18-.03-.25-.09-.07-.06-.1-.15-.1-.27v-.73l.99-.19.37-1.52c.05-.19.18-.29.41-.29h.97v1.82h1.54v1.27h-1.54v3.09c0,.14.03.26.1.36.07.09.17.14.3.14.07,0,.12,0,.17-.02.05-.01.09-.03.12-.05.03-.02.07-.03.1-.05.03-.01.06-.02.1-.02.06,0,.1.01.13.04.03.03.07.07.11.12l.56.88c-.24.18-.51.31-.81.4-.3.09-.61.14-.93.14Z"/>
    <path d="M36.91,4.02s-.06.08-.1.1-.08.04-.13.04c-.06,0-.13-.02-.2-.08-.07-.05-.16-.1-.27-.17s-.24-.11-.39-.17c-.15-.05-.34-.07-.57-.07-.3,0-.56.05-.79.16s-.42.26-.57.46c-.15.2-.27.44-.35.73-.08.28-.12.6-.12.95s.04.69.13.98.2.53.36.72c.15.19.34.34.56.44.22.1.46.15.73.15s.47-.03.64-.09.31-.13.42-.21c.11-.08.2-.15.28-.21.07-.06.15-.09.22-.09.09,0,.16.03.2.1l.3.39c-.13.16-.28.3-.45.42-.17.12-.35.21-.54.29s-.4.14-.61.17c-.21.04-.43.05-.65.05-.38,0-.73-.07-1.06-.21-.33-.14-.61-.34-.85-.61-.24-.27-.43-.59-.56-.98-.14-.39-.2-.83-.2-1.33,0-.45.06-.87.19-1.25.13-.38.31-.71.55-.99.24-.28.54-.5.89-.65.35-.16.76-.23,1.22-.23.43,0,.81.07,1.13.21.33.14.61.33.87.58l-.28.38Z"/>
    <path d="M42.28,9.02c-.1,0-.18-.02-.24-.05-.06-.03-.1-.1-.13-.2l-.12-.57c-.16.14-.32.27-.47.39-.15.11-.31.21-.48.29s-.34.14-.53.18-.4.06-.63.06-.46-.03-.67-.1-.39-.17-.54-.3c-.15-.13-.28-.3-.37-.5-.09-.2-.13-.44-.13-.72,0-.24.07-.47.2-.69.13-.22.35-.42.64-.59.3-.17.68-.31,1.16-.42.48-.11,1.06-.17,1.75-.19v-.47c0-.47-.1-.83-.31-1.07s-.5-.36-.89-.36c-.26,0-.48.03-.66.1-.18.07-.33.14-.46.22s-.24.16-.34.22c-.09.07-.19.1-.28.1-.07,0-.13-.02-.19-.06-.05-.04-.1-.08-.13-.14l-.19-.34c.34-.32.7-.57,1.09-.73.39-.16.82-.24,1.29-.24.34,0,.64.06.91.17.26.11.49.27.67.47.18.2.32.44.41.73.09.28.14.6.14.94v3.89h-.47ZM39.98,8.36c.19,0,.36-.02.52-.06.16-.04.3-.09.44-.16.14-.07.27-.16.4-.26s.25-.22.37-.35v-1.26c-.49.02-.91.05-1.26.12-.35.06-.63.14-.85.24-.22.1-.38.22-.47.35-.1.14-.15.29-.15.46s.03.3.08.41c.05.12.12.21.21.28.09.07.2.13.32.16.12.03.25.05.39.05Z"/>
    <path d="M44.38,11.08V2.94h.64c.15,0,.25.07.28.22l.09.72c.26-.32.56-.57.89-.76s.72-.29,1.15-.29c.35,0,.67.07.95.2.28.13.53.33.73.59.2.26.35.59.46.98.11.39.16.83.16,1.34,0,.45-.06.87-.18,1.25-.12.39-.29.72-.52,1-.23.28-.5.5-.83.67-.33.16-.69.24-1.1.24-.37,0-.69-.06-.96-.19s-.5-.3-.71-.53v2.69h-1.07ZM47.09,3.7c-.35,0-.65.08-.92.24-.26.16-.5.39-.72.68v2.94c.19.26.41.45.64.56.23.11.5.16.78.16.57,0,1-.2,1.31-.61.3-.4.46-.98.46-1.73,0-.4-.04-.74-.1-1.02-.07-.28-.17-.52-.3-.7-.13-.18-.29-.31-.49-.4s-.41-.13-.65-.13Z"/>
  </g>
</svg>