<?xml version="1.0" encoding="UTF-8"?>
<svg data-name="Layer 2" viewBox="0 0 521.96 62.78" xmlns="http://www.w3.org/2000/svg">
<defs>
<style>.cls-1 {
        fill: none;
        stroke: #8d9193;
        stroke-linecap: round;
        stroke-miterlimit: 10;
        stroke-width: 5.28px;
      }

      .cls-2 {
        fill: #8d9193;
      }</style>
</defs>
<g data-name="Layer 1">
<path class="cls-2" d="M0,57.86V4.9h8.41v45.58h20.24v7.38H0Z"/>
<path class="cls-2" d="m50.73 58.89c-3.05 0-5.8-0.76-8.28-2.27s-4.42-3.58-5.87-6.21c-1.44-2.64-2.18-5.64-2.18-9.01s0.71-6.28 2.11-8.89 3.32-4.7 5.8-6.24c2.45-1.54 5.27-2.29 8.41-2.29 2.57 0 4.93 0.53 7.08 1.6 2.15 1.08 3.87 2.57 5.14 4.47v-5.04h8v32.87h-8v-5.27c-1.44 1.99-3.23 3.53-5.32 4.63s-4.4 1.65-6.9 1.65zm2.27-6.83c1.99 0 3.76-0.46 5.27-1.35s2.73-2.15 3.6-3.76c0.87-1.6 1.31-3.44 1.31-5.5s-0.44-3.87-1.31-5.48c-0.87-1.6-2.09-2.87-3.6-3.78-1.51-0.92-3.28-1.35-5.27-1.35s-3.71 0.46-5.27 1.35c-1.54 0.92-2.75 2.15-3.62 3.78-0.87 1.6-1.31 3.44-1.31 5.48s0.44 3.85 1.31 5.48c0.87 1.6 2.09 2.89 3.6 3.78 1.54 0.92 3.3 1.35 5.27 1.35h0.02z"/>
<path class="cls-2" d="M83.36,57.86V25.01h8v3.94c1.15-1.44,2.68-2.66,4.56-3.58,1.88-.94,4.03-1.4,6.44-1.4,2.54,0,4.77.53,6.67,1.6s3.37,2.59,4.4,4.59c1.03,1.99,1.58,4.33,1.58,6.99v20.7h-8v-19.03c0-2.73-.69-4.86-2.04-6.35-1.35-1.49-3.23-2.22-5.64-2.22-1.67,0-3.09.34-4.29,1.01-1.19.66-2.11,1.58-2.75,2.71s-.96,2.36-.96,3.74v20.15h-8,.02Z"/>
<path class="cls-2" d="m140.55 58.89c-3 0-5.73-0.73-8.21-2.22s-4.43-3.55-5.87-6.19-2.15-5.64-2.15-9.06 0.71-6.33 2.13-8.96c1.42-2.64 3.37-4.7 5.82-6.24 2.45-1.51 5.3-2.27 8.48-2.27 2.52 0 4.84 0.53 6.97 1.6 2.11 1.08 3.83 2.57 5.14 4.47v-27.39h8v55.23h-8v-5.27c-1.42 1.99-3.21 3.53-5.34 4.63s-4.45 1.65-6.95 1.65l-0.02 0.02zm2.32-6.83c1.97 0 3.74-0.46 5.27-1.35 1.54-0.89 2.75-2.18 3.62-3.78s1.31-3.44 1.31-5.48-0.44-3.87-1.31-5.48c-0.87-1.58-2.09-2.84-3.62-3.78-1.54-0.92-3.3-1.38-5.27-1.38s-3.69 0.46-5.23 1.38-2.75 2.18-3.62 3.78-1.31 3.44-1.31 5.48 0.44 3.87 1.31 5.48c0.87 1.6 2.06 2.84 3.62 3.76s3.3 1.35 5.27 1.35l-0.05 0.02z"/>
<path class="cls-2" d="M173.22,57.86V2.66h8v55.2h-8Z"/>
<path class="cls-2" d="m209.74 58.89c-3.55 0-6.76-0.73-9.61-2.22-2.84-1.49-5.11-3.53-6.79-6.17-1.67-2.64-2.5-5.66-2.5-9.08s0.83-6.49 2.5-9.1 3.92-4.68 6.79-6.14c2.87-1.47 6.05-2.22 9.61-2.22s6.76 0.73 9.6 2.22 5.11 3.53 6.79 6.14c1.67 2.61 2.5 5.66 2.5 9.1s-0.82 6.44-2.5 9.08c-1.67 2.64-3.92 4.68-6.79 6.17s-6.05 2.22-9.6 2.22zm0-6.88c1.99 0 3.78-0.46 5.39-1.35 1.6-0.89 2.87-2.15 3.78-3.74 0.92-1.58 1.38-3.44 1.38-5.5s-0.46-3.92-1.38-5.5-2.18-2.84-3.78-3.74-3.39-1.35-5.39-1.35-3.78 0.46-5.39 1.35c-1.6 0.89-2.87 2.15-3.78 3.74-0.94 1.6-1.4 3.44-1.4 5.5s0.46 3.87 1.4 5.48c0.94 1.6 2.2 2.87 3.78 3.76 1.6 0.89 3.39 1.35 5.39 1.35z"/>
<path class="cls-2" d="M238.15,57.86V25.01h8v4.79c1.15-1.88,2.59-3.32,4.33-4.31,1.74-.99,3.65-1.49,5.75-1.49,1.08,0,2.18.16,3.32.46,1.15.3,2.13.69,2.93,1.15l-3.35,6.74c-.69-.46-1.49-.8-2.43-1.03-.94-.23-1.79-.34-2.59-.34-1.35,0-2.64.34-3.88,1.05-1.24.69-2.22,1.6-2.98,2.71-.76,1.1-1.15,2.32-1.15,3.6v19.58h-8l.02-.05Z"/>
<path class="cls-2" d="m282.85 58.89c-3 0-5.73-0.73-8.21-2.22s-4.43-3.55-5.87-6.19-2.15-5.64-2.15-9.06 0.71-6.33 2.13-8.96c1.42-2.64 3.37-4.7 5.82-6.24 2.45-1.51 5.3-2.27 8.48-2.27 2.52 0 4.84 0.53 6.97 1.6 2.11 1.08 3.83 2.57 5.14 4.47v-27.39h8v55.23h-8v-5.27c-1.42 1.99-3.21 3.53-5.34 4.63s-4.45 1.65-6.95 1.65l-0.02 0.02zm2.32-6.83c1.97 0 3.74-0.46 5.27-1.35 1.54-0.89 2.75-2.18 3.62-3.78s1.31-3.44 1.31-5.48-0.43-3.87-1.31-5.48c-0.87-1.58-2.09-2.84-3.62-3.78-1.54-0.92-3.3-1.38-5.27-1.38s-3.69 0.46-5.23 1.38-2.75 2.18-3.62 3.78-1.31 3.44-1.31 5.48 0.43 3.87 1.31 5.48c0.87 1.6 2.06 2.84 3.62 3.76s3.3 1.35 5.27 1.35l-0.05 0.02z"/>
<path class="cls-2" d="M311.44,57.86l30.49-45.51h-26.8v-7.45h41.65l-30.49,45.51h28.75v7.45h-43.63.02Z"/>
<path class="cls-2" d="M436.36,57.86V4.9h8.41l24.85,38.86V4.9h8.37v52.96h-8.37l-24.85-38.84v38.84h-8.41Z"/>
<path class="cls-2" d="M493.49,57.86V4.9h28.47v7.38h-20.06v15.34h19.28v7.38h-19.28v15.47h20.06v7.38h-28.47Z"/>
<path class="cls-1" d="m418.75 47.73c7.7-11.14 6.67-26.52-3.21-36.52-9.86-10-25.22-11.26-36.47-3.71"/>
<path class="cls-1" d="m371.41 15.06c-7.7 11.14-6.67 26.52 3.21 36.52s25.22 11.26 36.47 3.71"/>
<path class="cls-1" d="m404.15 14.88c-7.11-3.92-16.23-2.89-22.31 3.09s-7.22 15.11-3.42 22.26"/>
<path class="cls-1" d="m386.01 47.91c7.11 3.92 16.23 2.89 22.31-3.09s7.22-15.11 3.42-22.26"/>
</g>
</svg>
