<?xml version="1.0" encoding="UTF-8"?>
<svg data-name="Layer 2" viewBox="0 0 335.33 138.97" xmlns="http://www.w3.org/2000/svg">
<defs>
<style>.cls-1 {
        isolation: isolate;
        opacity: .92;
      }

      .cls-1, .cls-2 {
        fill: #a28246;
      }

      .cls-3 {
        fill: #bb9e70;
      }

      .cls-4 {
        fill: #b79665;
      }

      .cls-5 {
        fill: #a5a5a5;
      }

      .cls-6 {
        fill: #e5d0b3;
      }</style>
</defs>
<g data-name="Layer 1">
<path d="m160.4 43.03v-24.77h7.7c2.32 0 4.17 0.64 5.54 1.91 1.38 1.27 2.07 2.99 2.07 5.13 0 1.44-0.35 2.71-1.06 3.82s-1.67 1.92-2.9 2.42-2.99 0.75-5.28 0.75h-2.57v10.73h-3.5zm7.09-21.61h-3.6v7.74h3.81c1.41 0 2.5-0.34 3.27-1.02 0.76-0.68 1.15-1.65 1.15-2.91 0-2.54-1.54-3.81-4.62-3.81z"/>
<path d="M178.84,43.03v-24.73h6.08c2.46,0,4.41.62,5.85,1.86s2.16,2.91,2.16,5.03c0,1.44-.35,2.69-1.06,3.73-.71,1.05-1.72,1.84-3.04,2.35.78.52,1.53,1.23,2.28,2.12.74.9,1.78,2.46,3.13,4.69.85,1.4,1.52,2.46,2.03,3.17l1.29,1.77h-4.14l-1.06-1.63c-.03-.06-.1-.16-.21-.3l-.68-.97-1.08-1.81-1.16-1.93c-.72-1.02-1.37-1.82-1.97-2.42s-1.14-1.03-1.62-1.3c-.48-.26-1.29-.4-2.43-.4h-.91v10.76h-3.48.02ZM183.36,21.31h-1.04v7.81h1.32c1.76,0,2.97-.15,3.62-.46.65-.31,1.16-.77,1.53-1.39s.55-1.32.55-2.12-.2-1.48-.61-2.12c-.41-.63-.98-1.08-1.71-1.34-.74-.26-1.96-.39-3.66-.39h0Z"/>
<path d="m210.01 17.94c3.75 0 6.87 1.21 9.37 3.63s3.74 5.45 3.74 9.1-1.26 6.66-3.78 9.05-5.69 3.58-9.53 3.58-6.71-1.19-9.14-3.58c-2.44-2.39-3.66-5.38-3.66-8.98s1.23-6.75 3.68-9.17c2.46-2.42 5.56-3.63 9.31-3.63h0.01zm0.14 3.36c-2.78 0-5.06 0.89-6.85 2.66s-2.68 4.03-2.68 6.78 0.9 4.89 2.69 6.66 4.04 2.66 6.74 2.66 4.97-0.9 6.78-2.71 2.72-4.05 2.72-6.74-0.91-4.82-2.72-6.61-4.04-2.68-6.68-2.68v-0.02z"/>
<path d="m227.21 43.03v-24.77h7.7c2.32 0 4.17 0.64 5.54 1.91 1.38 1.27 2.07 2.99 2.07 5.13 0 1.44-0.35 2.71-1.06 3.82s-1.67 1.92-2.9 2.42-2.99 0.75-5.28 0.75h-2.57v10.73h-3.5zm7.09-21.61h-3.6v7.74h3.81c1.41 0 2.5-0.34 3.27-1.02 0.76-0.68 1.15-1.65 1.15-2.91 0-2.54-1.54-3.81-4.62-3.81z"/>
<path d="m245.54 18.3h13.76v3.15h-10.29v7.54h9.94v3.17h-9.94v7.68h10.62v3.15h-14.09v-24.69z"/>
<path d="M263.44,43.03v-24.73h6.08c2.46,0,4.41.62,5.85,1.86s2.16,2.91,2.16,5.03c0,1.44-.35,2.69-1.06,3.73-.71,1.05-1.72,1.84-3.04,2.35.78.52,1.53,1.23,2.28,2.12.74.9,1.78,2.46,3.13,4.69.85,1.4,1.52,2.46,2.03,3.17l1.29,1.77h-4.14l-1.06-1.63c-.03-.06-.1-.16-.21-.3l-.68-.97-1.08-1.81-1.16-1.93c-.72-1.02-1.37-1.82-1.97-2.42s-1.14-1.03-1.62-1.3c-.48-.26-1.29-.4-2.43-.4h-.91v10.76h-3.48.02ZM267.96,21.31h-1.04v7.81h1.32c1.76,0,2.97-.15,3.62-.46.65-.31,1.16-.77,1.53-1.39s.55-1.32.55-2.12-.2-1.48-.61-2.12c-.41-.63-.98-1.08-1.71-1.34-.74-.26-1.96-.39-3.66-.39h0Z"/>
<path d="M279.57,18.26h20.28v3.15h-8.46v21.61h-3.49v-21.61h-8.32v-3.15h-.01Z"/>
<path d="m317.73 18.3h4.22l-8.97 11.65v13.08h-3.56v-13.08l-8.97-11.65h4.2l6.5 8.53s6.58-8.53 6.58-8.53z"/>
<path d="m160.63 58.76h3.48v24.73h-3.48v-24.73z"/>
<path d="m188.78 58.76h3.3v24.73h-2.99l-16.23-19.04v19.04h-3.27v-24.73h2.82l16.37 19.21v-19.21z"/>
<path d="m212.66 58.76h3.46l-10.26 24.83h-0.79l-10.46-24.83h3.5l7.3 17.36 7.25-17.36z"/>
<path d="m218.78 58.76h13.76v3.15h-10.29v7.54h9.94v3.17h-9.94v7.68h10.62v3.15h-14.09v-24.69z"/>
<path d="M242.59,73.12l-2.64-1.63c-1.66-1.03-2.84-2.04-3.54-3.04s-1.05-2.14-1.05-3.44c0-1.95.66-3.53,1.99-4.74,1.33-1.22,3.05-1.82,5.17-1.82s3.89.58,5.58,1.74v4.02c-1.75-1.71-3.63-2.57-5.65-2.57-1.14,0-2.07.27-2.8.8-.73.54-1.09,1.22-1.09,2.05,0,.74.27,1.43.81,2.08s1.4,1.33,2.59,2.04l2.65,1.6c2.96,1.8,4.44,4.09,4.44,6.88,0,1.98-.65,3.59-1.96,4.83-1.3,1.24-3,1.86-5.08,1.86-2.4,0-4.58-.75-6.55-2.25v-4.5c1.88,2.42,4.05,3.63,6.52,3.63,1.09,0,2-.31,2.72-.93s1.09-1.39,1.09-2.32c0-1.5-1.07-2.93-3.2-4.28h0Z"/>
<path d="M250.81,58.72h20.28v3.15h-8.46v21.61h-3.49v-21.61h-8.32v-3.15h-.01Z"/>
<path d="m283.97 58.4c3.75 0 6.87 1.21 9.37 3.63s3.74 5.45 3.74 9.1-1.26 6.66-3.78 9.05-5.69 3.58-9.53 3.58-6.71-1.19-9.14-3.58c-2.44-2.39-3.66-5.38-3.66-8.98s1.23-6.75 3.68-9.17c2.46-2.42 5.56-3.63 9.31-3.63h0.01zm0.14 3.36c-2.78 0-5.06 0.89-6.85 2.66s-2.68 4.03-2.68 6.78 0.9 4.89 2.69 6.66 4.04 2.66 6.74 2.66 4.97-0.9 6.78-2.71 2.72-4.05 2.72-6.74-0.91-4.82-2.72-6.61-4.04-2.68-6.68-2.68v-0.02z"/>
<path d="M301.46,83.49v-24.73h6.08c2.46,0,4.41.62,5.85,1.86s2.16,2.91,2.16,5.03c0,1.44-.35,2.69-1.06,3.73-.71,1.05-1.72,1.84-3.04,2.35.78.52,1.53,1.23,2.28,2.12.74.9,1.78,2.46,3.13,4.69.85,1.4,1.52,2.46,2.03,3.17l1.29,1.77h-4.14l-1.06-1.63c-.03-.06-.1-.16-.21-.3l-.68-.97-1.08-1.81-1.16-1.93c-.72-1.02-1.37-1.82-1.97-2.42s-1.14-1.03-1.62-1.3c-.48-.26-1.29-.4-2.43-.4h-.91v10.76h-3.48.02ZM305.98,61.77h-1.04v7.81h1.32c1.76,0,2.97-.15,3.62-.46s1.16-.77,1.53-1.39.55-1.32.55-2.12-.2-1.48-.61-2.12c-.41-.63-.98-1.08-1.71-1.34-.74-.26-1.96-.39-3.66-.39h0Z"/>
<path d="M328.87,73.12l-2.64-1.63c-1.66-1.03-2.84-2.04-3.54-3.04s-1.05-2.14-1.05-3.44c0-1.95.66-3.53,1.99-4.74,1.33-1.22,3.05-1.82,5.17-1.82s3.89.58,5.58,1.74v4.02c-1.75-1.71-3.63-2.57-5.65-2.57-1.14,0-2.07.27-2.8.8-.73.54-1.09,1.22-1.09,2.05,0,.74.27,1.43.81,2.08s1.4,1.33,2.59,2.04l2.65,1.6c2.96,1.8,4.44,4.09,4.44,6.88,0,1.98-.65,3.59-1.96,4.83-1.3,1.24-3,1.86-5.08,1.86-2.4,0-4.58-.75-6.55-2.25v-4.5c1.88,2.42,4.05,3.63,6.52,3.63,1.09,0,2-.31,2.72-.93s1.09-1.39,1.09-2.32c0-1.5-1.07-2.93-3.2-4.28h0Z"/>
<polygon class="cls-4" points="55.48 45.63 46.19 44.13 63.88 94.81 66.2 94.81"/>
<polygon class="cls-4" points="82.57 45.63 91.17 44.13 68.68 22.02 68.68 33.41"/>
<polygon class="cls-6" points="68.68 33.41 68.68 22.02 46.19 44.13 54.79 45.63"/>
<polygon class="cls-2" points="82.57 45.63 71.16 94.81 73.48 94.81 91.17 44.13"/>
<polygon class="cls-5" points="57.78 49.72 68.68 38.9 57.79 49.71"/>
<polygon class="cls-3" points="68.68 33.41 54.79 45.63 66.2 96.91 71.16 94.81 82.57 45.63"/>
<rect class="cls-2" x="52" y="96.91" width="33.36" height="9.71"/>
<polygon class="cls-6" points="88.38 106.62 48.98 106.62 44.15 109.11 93.21 109.11"/>
<polygon class="cls-6" points="80.78 94.25 56.58 94.25 52 96.91 85.36 96.91"/>
<rect class="cls-2" x="44.15" y="109.11" width="49.06" height="5.95"/>
<polygon class="cls-3" points="52 96.91 52 106.62 63.74 106.62 72.24 96.91"/>
<polygon class="cls-3" points="44.15 109.11 44.15 115.06 62.58 115.06 67.79 109.11"/>
<polygon class="cls-4" points="79.27 26.52 85.36 26.52 85.36 40.9 79.27 37.51"/>
<path class="cls-3" d="M69.48,138.97C31.17,138.97,0,107.8,0,69.48S31.17,0,69.48,0v3.78C33.25,3.78,3.78,33.25,3.78,69.48s29.48,65.7,65.7,65.7,65.7-29.48,65.7-65.7h3.78c0,38.31-31.17,69.49-69.49,69.49h.01Z"/>
<path class="cls-1" d="m69.48 132.31v-2.83c33.09 0 60-26.92 60-60s-26.92-60-60-60-60 26.91-60 59.99h-2.84c0-34.65 28.19-62.84 62.84-62.84s62.84 28.19 62.84 62.84-28.19 62.84-62.84 62.84z"/>
<path class="cls-3" d="m172.59 99.87 10.78 24.73h-6.5l-2-4.89h-10.87l-1.81 4.89h-6.41l9.81-24.73h7.01zm0.51 15.52-3.94-9.61-3.57 9.61h7.51z"/>
<path class="cls-3" d="m201.37 108.79-7.52 16.13h-2.61l-10.67-25.05h6.42l5.72 13.65 6.23-13.65h4.87l6.24 13.65 5.67-13.65h6.42l-10.62 25.05h-2.61l-7.55-16.13h0.01z"/>
<path class="cls-3" d="m236.21 99.87 10.78 24.73h-6.5l-2-4.89h-10.87l-1.81 4.89h-6.41l9.81-24.73h7.01-0.01zm0.51 15.52-3.94-9.61-3.57 9.61h7.51z"/>
<path class="cls-3" d="M249.79,99.87h10.84c2.35,0,4.26.69,5.74,2.08,1.47,1.39,2.21,3.06,2.21,5.03,0,2.72-1.39,4.74-4.17,6.05,1.22.56,2.38,2.09,3.47,4.56,1.1,2.48,2.16,4.81,3.18,7.01h-6.64c-.4-.81-1.09-2.37-2.07-4.66s-1.83-3.76-2.53-4.41-1.45-.97-2.25-.97h-1.74v10.04h-6.05v-24.73h.01ZM255.84,104.4v5.63h3.2c1.02,0,1.83-.24,2.42-.73.6-.49.89-1.19.89-2.1,0-1.86-1.15-2.8-3.46-2.8h-3.06,0Z"/>
<path class="cls-3" d="m273.84 99.87h10.71c4.14 0 7.41 1.15 9.81 3.46s3.61 5.29 3.61 8.95-1.22 6.85-3.66 9.04-5.92 3.28-10.44 3.28h-10.03v-24.73zm6.05 4.53v15.67h3.95c2.56 0 4.52-0.72 5.87-2.15s2.03-3.32 2.03-5.67-0.69-4.35-2.06-5.74c-1.37-1.4-3.35-2.1-5.92-2.1h-3.88 0.01z"/>
<path class="cls-3" d="M318.89,101.47v4.83c-3.22-1.48-5.79-2.21-7.7-2.21-1.09,0-1.96.19-2.6.56-.64.37-.96.86-.96,1.48,0,.47.23.92.69,1.35.46.42,1.59.97,3.39,1.65,1.79.67,3.23,1.3,4.31,1.88,1.08.58,2.01,1.39,2.79,2.44s1.17,2.38,1.17,3.98c0,2.29-.85,4.11-2.56,5.47s-3.96,2.04-6.75,2.04c-3.01,0-5.93-.8-8.76-2.39v-5.33c1.62,1.11,3.06,1.92,4.31,2.42,1.25.51,2.58.76,3.98.76,2.38,0,3.56-.76,3.56-2.28,0-.52-.24-1.01-.71-1.47s-1.62-1.02-3.43-1.68-3.25-1.27-4.31-1.84-1.97-1.38-2.75-2.43c-.77-1.05-1.16-2.4-1.16-4.04,0-2.12.84-3.84,2.52-5.14s3.93-1.96,6.74-1.96c2.59,0,5.33.64,8.22,1.91h0Z"/>
</g>
</svg>
