<?xml version="1.0" encoding="UTF-8"?>
<svg data-name="Layer 2" viewBox="0 0 597 61.1" xmlns="http://www.w3.org/2000/svg">
<defs>
<style>.cls-1 {
        fill: #8d9193;
      }</style>
</defs>
<g data-name="Layer 1">
<path class="cls-1" d="M426.88,6.74c6.27,5.25,9.64,11.89,10.46,20.08.12,10.91-1.91,17.94-9.43,25.95-6.14,5.56-13.78,7.24-21.9,7.72-4.61-.43-8.71-1.43-12.94-3.31-4.28-.96-7.45.27-11.57,1.59q-2.49.73-5.49.73.36-1.36.73-2.75c1.58-6.48,2.76-11.48.84-17.91-1.84-7.66-1.4-15.49,2.44-22.35q.77-1.73,1.56-3.5c3.42-5.81,10.02-10.09,16.44-11.94,10.42-1.88,20.2-.63,28.88,5.69ZM393.25,18.36c-3.73,5.18-4.69,8.71-4.25,15.12.35,1.2.7,2.39,1.06,3.62.94,3.39.94,5.07-.06,8.38.99-.06,1.98-.12,3-.19,3.04-.02,5.16.54,7.94,1.75,4.18,1.68,7.76,1.8,12.06.44,5.84-2.73,9.43-5.71,11.69-11.88.91-6.16.39-10.66-2.69-16.12-3.6-3.79-6.88-6.72-12.27-7.2-7.16-.13-11.35.72-16.48,6.08Z"/>
<path class="cls-1" d="m442 0.49q35.62 0 44.73 8.64c6.55 7.18 8.27 14.81 8.27 24.36-0.97 8.76-4.98 15.57-11.41 21.36-14.2 9.01-22.91 5.64-41.59 5.64v-60zm12 11v38q15.84 1.57 23-4c4.01-4.01 5-9.26 5-14.75-0.45-6.74-1.37-11.81-6.5-16.56-7.11-4.8-11.15-2.69-21.5-2.69z"/>
<path class="cls-1" d="M519.72.39q1.65.02,3.34.04c1.1,0,2.21.02,3.35.03.85.01,1.71.02,2.59.04,4.93,12.19,9.73,24.42,14.41,36.71,2.43,6.36,4.97,12.65,7.67,18.91q.92,2.38.92,4.38c-1.94.11-3.87.19-5.81.25-1.08.05-2.16.09-3.27.14q-2.92-.39-4.62-1.84c-1.87-3.66-3-7.65-4.3-11.55h-23c-.62,1.77-1.24,3.55-1.88,5.38q-1.88,5.38-4.12,7.62-2.6.2-5.62.12c-1-.02-2.01-.04-3.04-.05q-1.16-.03-2.34-.07c.59-4.22,1.58-7.88,3.15-11.83.44-1.12.88-2.23,1.34-3.39.48-1.19.95-2.37,1.44-3.59.49-1.22.97-2.45,1.48-3.71,1.01-2.55,2.03-5.1,3.05-7.65,1.49-3.73,2.97-7.46,4.45-11.2.9-2.27,1.8-4.55,2.71-6.82.43-1.07.85-2.15,1.29-3.26.39-.98.78-1.96,1.19-2.98.34-.86.69-1.73,1.04-2.62q1.28-2.94,4.58-3.06ZM522,15.49c-1.17,3.12-2.34,6.25-3.5,9.38-.33.89-.67,1.78-1.01,2.7-.32.85-.63,1.7-.96,2.58-.29.79-.59,1.57-.89,2.38q-.75,1.94-.64,3.97h16c-2.64-6.93-5.28-13.86-8-21h-1Z"/>
<path class="cls-1" d="m162 0.49h10c0.02 7.54 0.04 15.09 0.05 22.63 0 3.5 0.01 7.01 0.02 10.51 0.01 4.02 0.02 8.05 0.02 12.07 0 1.26 0.01 2.53 0.02 3.83v3.52 3.12q-0.12 2.32-1.12 3.32c-2.33 0.04-4.67 0.04-7 0l-2-4c-0.97 0.64-1.94 1.28-2.94 1.94-4.24 2.4-8.19 3.28-13.06 3.06-5.22-1.57-8.68-3.66-12-8-3.76-8.88-3.86-16.41-0.41-25.4 2.73-5.03 7.07-7.82 12.41-9.6 1.62-0.12 3.25-0.18 4.88-0.19 0.84-0.01 1.69-0.03 2.55-0.04q2.57 0.23 7.57 2.23l1-19zm-18 27c-3.05 5.25-3.8 9.98-3 16 1.15 4.11 2.35 6.56 6 9 5.63 0.46 9.1 0.11 14-3 1.2-2.4 1.11-3.89 1.1-6.57q0-1.34 0-2.71c0-0.94-0.02-1.87-0.03-2.84 0-0.94 0-1.89-0.01-2.86-0.01-2.34-0.03-4.67-0.05-7.01-6.33-3.37-12.08-5.1-18 0z"/>
<path class="cls-1" d="M542,.49c1.89-.14,3.79-.23,5.69-.31,1.06-.06,2.11-.12,3.2-.18,4.29.67,5.42,2.1,8.11,5.49,1.91,3.03,3.63,6.15,5.31,9.31q.68,1.25,1.38,2.53c1.11,2.05,2.21,4.1,3.31,6.15h2c.28-.55.56-1.11.85-1.68,1.29-2.53,2.59-5.05,3.9-7.57.44-.87.89-1.75,1.34-2.64q4.59-8.85,7.91-11.11,3.02-.39,6.25-.25c1.08.04,2.16.07,3.27.11.82.05,1.64.09,2.48.14-.66,3.39-1.96,5.9-3.73,8.85q-.83,1.4-1.69,2.83c-.58.97-1.17,1.94-1.77,2.94-.57.95-1.13,1.89-1.71,2.87-.56.94-1.13,1.88-1.71,2.86-.56.95-1.12,1.9-1.7,2.87-1.09,1.79-2.23,3.55-3.43,5.27-4.5,6.67-5.16,12.17-5.14,20.13-.02,1.1-.04,2.2-.06,3.33-.05,2.68-.06,5.36-.06,8.04h-12q.19-1.99.38-4.01c.99-20.63-9.32-34.91-20.63-51.25q-1.75-2.74-1.75-4.74Z"/>
<path class="cls-1" d="m332.9 0.37h2.52 2.85c1.02 0 2.05 0.01 3.1 0.02h3.16c3.34 0 6.68 0.02 10.03 0.03 2.26 0 4.52 0 6.78 0.01 5.55 0.01 11.11 0.03 16.66 0.05v11h-18v49h-12v-48.99h-17q-1-1-1.13-3.03v-2.47-2.47c0.17-2.67 0.37-2.98 3.04-3.15z"/>
<path class="cls-1" d="M317,.49h7v59h-6q-1.88-2-3-4c-.8.64-1.61,1.28-2.44,1.94-4.56,3-9.4,3.65-14.74,2.66-5.21-1.65-7.81-4.08-10.82-8.59-2.7-6.81-3.31-14.34-1.31-21.45,2.71-5.94,7.26-10.06,13.31-12.55q2.59-.3,5.38-.31c.92-.02,1.83-.03,2.77-.05,3.42.44,5.86,1.69,8.85,3.36q0-.86-.02-1.73c-.02-2.57-.03-5.14-.05-7.71,0-.9-.02-1.8-.03-2.72q0-1.28,0-2.59t-.02-2.4q.11-1.86,1.11-2.86ZM296.41,29.3c-3.08,4.78-2.66,10.64-1.79,16.07,1.64,3.73,2.79,5.18,6.38,7.12,6.4.83,9.74-.35,15-4,1.15-2.3,1.12-3.58,1.1-6.13q0-1.21,0-2.44c0-.84-.02-1.68-.03-2.55,0-.85,0-1.7-.01-2.57-.01-2.1-.03-4.2-.05-6.3-1.08-.65-2.16-1.3-3.27-1.97-.61-.37-1.22-.73-1.84-1.11-5.92-2.88-11.37-.78-15.48,3.89Z"/>
<path class="cls-1" d="M236.32,20.21c3.9,2.95,6.87,6.72,8.68,11.27.74,6.99,1.08,14.22-2.67,20.39-4.04,4.91-9.07,7.57-15.33,8.61-7.52.19-13.19-1.11-19-6-5.24-5.52-6.47-10.71-6.32-18.14.63-5.68,2.65-10.14,6.63-14.23,8.76-5.3,18.65-7.38,28-1.9ZM214,28.49c-2.25,3.41-2.3,6.41-2.31,10.44q-.03,1.67-.05,3.37c.41,3.56,1.17,5.38,3.36,8.19,4.21,2.88,9.1,2.78,14,2,3.76-2.74,5.85-5.49,7-10,.51-6.45-.24-10.66-4.5-15.81-5.76-4.56-12.41-2.45-17.5,1.81Z"/>
<path class="cls-1" d="M69.5,19.18q6.31,5.84,6.95,10.91c0,1.37-.02,2.74-.06,4.11,0,.73-.01,1.45-.02,2.2-.02,2.3-.07,4.6-.12,6.91-.02,1.57-.04,3.13-.05,4.7-.04,3.83-.11,7.66-.2,11.49h-6c-.66-1.32-1.32-2.64-2-4-.95.64-1.9,1.28-2.88,1.94-5.01,2.84-10.51,3.84-16.18,2.62-4.16-1.56-6.77-3.73-8.95-7.56-.57-3.97-.46-6.14,1.44-9.69,7.37-6.65,16.07-7.5,25.56-7.31-.27-1.28-.54-2.56-.81-3.88-.15-.72-.3-1.44-.46-2.18q-.65-2.32-3.73-3.95-2.16-.1-4.44.25-1.14.13-2.31.27-2.3.39-4.37,1.55c-2.58,1.27-4.18.68-6.89-.07-.33-1.32-.66-2.64-1-4,1.27-.82,2.54-1.63,3.81-2.44.71-.45,1.42-.9,2.14-1.37,6.09-3.55,14.31-3.51,20.54-.5ZM50,45.49q-.25,2.96,0,6,1.97,2.39,5.69,2.38c4.68-.09,7.47-1.81,11.31-4.38v-8c-5.35-.34-12.95-.05-17,4Z"/>
<path class="cls-1" d="m116.05 18.11c4.03 1.93 6.22 4.65 8.15 8.71 1.75 5.85 1.2 12.11 1.05 18.17-0.02 1.41-0.04 2.82-0.05 4.23-0.05 3.43-0.11 6.85-0.2 10.27h-10c-0.02-0.86-0.04-1.72-0.06-2.6-0.08-3.19-0.16-6.38-0.26-9.57-0.04-1.38-0.07-2.76-0.1-4.14-0.05-1.99-0.1-3.97-0.16-5.96q-0.05-1.79-0.1-3.62c-0.3-2.97-0.57-4.72-2.32-7.12-7.24-2-8.73-0.64-16 3l-1 30h-8v-40.99h7l2 3c1.11-0.66 2.23-1.32 3.38-2 5.47-2.71 10.81-3.16 16.68-1.38z"/>
<path class="cls-1" d="M0,2.49h9v48h27v9H0V2.49Z"/>
<path class="cls-1" d="M274.5,17.36q1.19,0,2.41,0,2.09.13,4.09,1.13.12,5.75-1,8c-3.01.32-6,.38-9.02.46-3.59.65-4.73,1.74-6.98,4.54-1.34,2.68-1.21,4.88-1.32,7.88-.04,1.17-.08,2.33-.13,3.54q-.06,1.83-.12,3.71c-.04,1.23-.09,2.46-.13,3.73-.11,3.05-.21,6.1-.31,9.14h-8V18.49h7c.66,1.32,1.32,2.64,2,4,.78-.64,1.57-1.28,2.38-1.94,3.38-2.65,4.92-3.2,9.12-3.19Z"/>
<path class="cls-1" d="M185,.49h8v59h-8V.49Z"/>
</g>
</svg>
