<?xml version="1.0" encoding="UTF-8"?>
<svg version="1.1" viewBox="0 0 174.3 25.6" xmlns="http://www.w3.org/2000/svg">
<defs>
<style>.st0 {
        fill: #8d9193;
      }</style>
</defs>
<path class="st0" d="M92.6,22c.6-.5,2-.7,2.9-.4.8.2,1,1.6,1,2.6,1.2-.6,1.8-2.4,1.2-3.7l-4.8-10.4c-.2-.5-.8-1.8-1.3-1.8l-3.1-.2v2.7c0,0,.3,7.6.3,7.6,0,.2.4,1,.7.9s.7-.3.9-.4l1.4-.9c0,2.2-1.8,3.1-3.8,3-1.3,0-3.1-.6-3.1-2.4v-9.8c0-.3-.9-.5-1.2-.6l-1.3-.5,2.4-.2v-3.3c.1,0,3.7-.8,3.7-.8v4.1h9.3c.9.3,1,.5-.3.8,0,0-.3,1-.2,1.3l2.9,7,1.4-4.1c.3-.8.8-2.6.3-3.2-.4-.5-.9-1-1.5-1.7h3.6c2.1-.2,0,1.5-.4,2.4l-4.8,13.4c-.5,1.5-1.8,2.3-3.5,2.3-.8,0-2.1-.4-2.7-1-.4-.5-.3-2.1,0-2.5h0Z"/>
<path class="st0" d="M6.4,18.4c0,1.8,2.8.9,2.6,2.1H.7C.5,20.6,0,20.4,0,20.3l.7-.4c.5-.3,1.1-1.2,1.1-1.8V4.5c0-.5-.5-.9-1.4-1.2,0,0,0-.6,0-.8h9.4c2.4-.1,4.7,1.1,5.5,3.3,1.1,3.3-1,6.7-4.6,7.1-1.5.2-2.8.3-4.5.4,0,0,.2,4.9.2,5ZM10.6,11c.5-2.1.7-4.2,0-6-.6-1.6-2.6-2.3-3.9-1.5-.2.5-.6,1.7-.6,2.2v6.8c1.7.4,3.3,0,4.5-1.5h0Z"/>
<path class="st0" d="M43,25.1c-1.4,0,1-.9,1-2.1v-12.5c0-.6-.5-1.8-.9-2.2l-.4-.4c0,0,.2-.5.3-.5l4.2-.2c.4,0,1.1,1.1,1.2,1.3,2-2,6.1-1.8,7.3.4,1.4,2.6,1.5,7-.1,9.5s-4.7,2.9-7.3,2.1c-.2,1.1,0,2.8.6,3.5l1.7,1.1h-7.5s0,0,0,0ZM52.6,16.9c.2-1.9.7-9-2.3-8.5-2.2.3-2.6,2.7-2.5,4.5v5.9c0,.6.9,1.3,1.4,1.3,2,.2,3.4-1.9,3.5-3.2Z"/>
<path class="st0" d="M40.5,17.8c-1.1,2.6-3.6,3.1-6,3.1-2.9,0-5.5-1.5-5.9-4.5-.4-2.9-.3-7.1,2.7-8.6,2-1,4.7-1,6.7-.2,3.6,1.5,4,6.8,2.6,10.2h0ZM35.5,20.2l1.5-2.3c.1-3.5.8-6.4-1.1-9.5-.3-.4-1.8-.6-2.1-.2-.6,1.1-1.1,2.3-1.5,3.5l.2,4c0,1.6.7,5.1,3,4.5h0Z"/>
<path class="st0" d="M112,17.9l1.8-5.2,1.1-3.4v-.8c-.1-.5-1.8-.4-2.9,1-1.6,2.1-2.9,4.5-3.7,7l-1.3,4.2-2.6-.2,2.7-9.5c.2-.8.3-1.8.3-2.6-.4.2-1,.5-1.1.7l-1.7,2.7c-.6-1.9,1.2-5.2,4.3-4.8.3,0,1,.9,1,1.3v2.3s1.5-2,1.5-2c1.2-1.6,4.1-2.2,5.6-.8.5.5.4,2.2.2,3l-2.7,7.7c0,.1,0,.9,0,1h.9s1.2-2.3,1.2-2.3c0-.2.4-.5.4-.6s.6.3.5.4l-.6,1.6c-.8,2.2-3,3-5,2-.2-.5-.4-2-.2-2.5h0Z"/>
<path class="st0" d="M64.7,18c2.2,1.6,4.7-1.9,5.1-1-.9,3.6-4.3,4.4-7.3,3.6-4.1-1-4.3-6.3-3.5-9.6.7-2.8,3.4-4.2,6.2-3.8,1.6-.3,3.3.4,4.1,1.9.5,1,.6,2.5.6,3.6h-7c-.2,1.9.4,4,1.9,5.2h0ZM66.7,12.2l-.7-3.5c0-.3-.7-.9-1-.9-1.5-.3-2.4,2.8-2.3,4.4h4Z"/>
<path class="st0" d="M22.1,11.6v6.6c0,.6.9,1.5,1.4,1.7l.7.3c.1,0-.4.5-.6.5h-7.2c0,0,.9-1.1.9-1.1.2-.4.6-1.7.6-2.3v-6c0-.6-.3-1.9-.6-2.4l-.9-1.4,4.8-.2c.3,0,1,1,1,1.1.8-.5,1.9-1,3-1.1,1.4-.1,2.5.8,2.5,2.1,0,.5-.2,1.6-.5,1.9-.6.6-2.6.7-3.2,0-.4-.4-.4-1.4-.4-2.5h-.4c-.4.5-1.2,1.9-1.2,2.8h0Z"/>
<path class="st0" d="M76.8,11.1v6.9c0,2,2.1,1.1,2.2,2.4h-7.5c0,0,0-.5,0-.5.5-.4,1.2-1.2,1.2-1.6v-8.4c0-1.7-2.8-2.6-.5-2.7l3.6-.2c.4,0,1.1.7,1.3,1l1.2-.7c.7-.4,2.5-.4,3.2,0,1.2.6,1.4,2.8.5,3.7-.6.6-2.6.7-3.2,0-.4-.5-.3-1.9-.3-2.7-.9.4-1.6,1.6-1.6,2.6h0Z"/>
<path class="st0" d="M156.3,7.9c-.4,0-.6.8-.7,1.4l-4.2,15.3c-.2.6-2,.9-2.7.7.2-1.3.4-2.4.7-3.6l3.8-13.5-2.2-.7,2.6-.5c1-4.1,2.2-7.3,7.1-7,1,0,1.9,1.1,1.6,2.2-.1.5-.7,1.3-1,1.6s-1.4.1-1.7-.2c-.5-.7,0-1.9.5-2.7-1.1-.6-2.5,1.3-2.8,2.2l-1.1,3.8,2.9.5-2.8.4h0Z"/>
<path class="st0" d="M169.6,13c-3.7,10.5-13.2,14.8-13.9,11.5-.1-.6,1-1.6,1.5-1.5l2.6.7,1.9-1.1c2.2-1.3,1.6-2.1,1-5.5l-1.4-7.8c0-.2-.2-.6-.3-.8,0-.2-.6.2-.8.4l-1.6,2.8c-.6-1.6,1-5,3.6-5s1.6.8,1.7,1.3l1.1,6.3.7,3.7c.5-.6,4.5-7.1,2.9-7.7-.8-.3-1.8-1.9-1.1-2.9.5-.8,2.4-.7,2.6.3.3,1.7.1,3.6-.5,5.2h0Z"/>
<path class="st0" d="M123.5,20.9c-1.5,0-3.5-.7-3.6-2.5v-4c1.2-4.2,3.3-7.8,8.4-7.5,1.4,0,2.7,1.3,2.9,2.6.5,3.4-.6,6.7-2.9,9.3-1.2,1.4-2.9,2-4.8,2.1h0ZM128.2,7.9c-.9-.7-2.4.1-3.1,1-2.7,3.3-4.3,10.5-2,11.2,3.9,1.2,7.3-10.3,5.1-12.1h0Z"/>
<path class="st0" d="M139.7,16.1c.5-.3-.4,3.2-2.1,4.3-1.1.7-4.7.5-4.6-1.2,0-1,.2-2.3.5-3.2l2.4-7.9-2.2-.5,1.4-.3c2.4-.5.6-.5,2.3-3.8.3-.6,1.9-.7,2.5-.6l-.7,3.3-.2.8c0,.2.5.2.8.2l2.5.3-3.7.6-2.5,8.2c-.2.8-.5,2.1-.3,2.8.2.8,1.8,0,2.1-.5l1-2.2c0-.1.6-.2.7-.3h0Z"/>
<path class="st0" d="M145.4,20.6c-.6.4-2.4.3-3,0-.4-.1-.7-1.5-.6-2l3.2-8.9c.1-.3,0-1.6-.2-1.4-1.8.9-.8,1.8-2.6,3.4-.3-1.7.5-3.2,1.8-4.3.8-.7,2.8-.8,3.4-.1.4.5.5,2,.3,2.7l-2.3,6.4c-.3.9-.6,1.8-.8,2.9,2.2.4,2-4.2,3.3-2.9-.3,1.6-.9,3.3-2.5,4.2h0Z"/>
<path class="st0" d="M149.1,1.2c.6.4.4,2.2-.1,2.6-.5.4-1.7.8-2.4.4-1.1-.6-.6-2.4,0-3,.4-.3,1.8-.4,2.4,0Z"/>
<path class="st0" d="M174.3,5.6c0,1-.8,1.8-1.9,1.8s-1.9-.8-1.9-1.8.8-1.8,1.9-1.8,1.9.8,1.9,1.8ZM171.9,5.3c-.6-.6-1.1-.6-.4.5,0,.3.1.2.4-.5ZM173.8,5.1h-.9c.2,1.5.7,1.5.9,0Z"/>
</svg>
