<?xml version="1.0" encoding="UTF-8"?>
<svg data-name="Layer 2" viewBox="0 0 415.28 104.89" xmlns="http://www.w3.org/2000/svg">
<defs>
<style>.cls-1 {
        fill: #8d9193;
      }</style>
</defs>
<g data-name="Layer 1">
<path class="cls-1" d="M221.5,103.87l-32.67.61-21.01-31.29c-4.43-.18-8.48-.26-13.01.07l-.35,31.18-28.55-.12V.62s53.3.1,53.3.1c7.86.01,14.94,1.58,21.76,5,8.85,4.67,15.51,12.47,17.07,22.46,2.88,18.42-2.86,31.95-20.73,40.16l24.18,35.53ZM188.88,42.79c1.25-3.32,1.11-7.71-.29-10.71-4.64-9.93-24.39-5.96-33.88-6.47l-.02,24.84,20.12.15c5.6.04,11.86-1.95,14.06-7.81Z"/>
<path class="cls-1" d="M62.2,104.61l-25.32-25.2.16-33.19,42.42,41.39.26-86.99,24.46.02v103.85c-14.12.59-27.51.41-41.99.11Z"/>
<path class="cls-1" d="M24.58,17.34l-.22,86.98-23.99.08c-.81-2.14-.03-3.6-.04-5.62L.2.94l42.16-.1,25.09,25.16-.12,33.01L24.58,17.34Z"/>
<path class="cls-1" d="M376.98,86.12l-40.49-.11-7.6,18.35-30.15-.12L343.1,0h27.86s44.32,104.24,44.32,104.24l-30.49.24-7.81-18.36ZM368.46,63.47l-11.66-29.24-11.87,29.44c8.04.29,15.54.71,23.53-.2Z"/>
<path class="cls-1" d="M298.44,79.58l-10.41,24.85-54.43-.04V.93c9.49-.61,18.78-.47,28.65-.07l.05,78.42,36.14.3Z"/>
</g>
</svg>
